<svg xmlns="http://www.w3.org/2000/svg" viewBox="0 0 232 76"><defs><style>.cls-1{fill:#fff;}</style></defs><g id="Layer_2" data-name="Layer 2"><g id="Layer_1-2" data-name="Layer 1"><g id="NVIDIA_GeForce_RTX" data-name="NVIDIA GeForce RTX"><path class="cls-1" d="M50.34,52.77H49V59.3h1.39c2,0,3.31-.91,3.31-3.27S52.35,52.77,50.34,52.77Z"/><path class="cls-1" d="M61.6,33.66c-.74-.75-4.34-2.47-5.21-3.18C51.09,35.08,45.61,39,38,39a14.55,14.55,0,0,1-1.75-.11v2.37c.61.06,1.23.1,1.87.1C44.82,41.32,56.56,37.9,61.6,33.66Z"/><path class="cls-1" d="M37.1,20.58c7.51-.23,12.43,6.48,12.43,6.48s-5.32,7.43-11,7.43a7,7,0,0,1-2.22-.36V36.3a11.39,11.39,0,0,0,2.1.19c8.14,0,15.94-9.54,15.94-9.54s-6.79-9-17.23-8.61l-.81.05v2.23Z"/><path class="cls-1" d="M27.35,27.73a15.1,15.1,0,0,1,8.94-4.35V20.62a17.35,17.35,0,0,0-12.43,6.8S27,37.68,36.29,38.85V36.3C29.29,35.05,27.35,27.73,27.35,27.73Z"/><path class="cls-1" d="M36.28,25.77c-2.93-.36-5.21,2.39-5.21,2.39s1.28,4.64,5.22,6V25.77Z"/><path class="cls-1" d="M41.56,30.36l3.9-3.31a10.31,10.31,0,0,0-7.65-3.76,12.79,12.79,0,0,0-1.52.09v2.39C39.22,26.12,39.8,27.42,41.56,30.36Z"/><path class="cls-1" d="M0,0V76H211.74L232,0ZM36.29,18.39V14.27H65.06V44.8H36.29V41.22C23.67,40,19.17,27,19.17,27S27.12,19.13,36.29,18.39ZM26.67,61.75H23.51v-5c0-1.61-.2-2.49-.71-3A2.4,2.4,0,0,0,21,53H18.44v8.73H15.19V50.25H21c2.81,0,5.69.61,5.69,5.15Zm8.82,0H30.84L27.16,50.27h3.48l2.58,9.1,2.69-9.1H39.2Zm8.29,0H40.56V50.27h3.22Zm11.88-1.51c-1,1-1.89,1.51-4.68,1.51H45.75V50.27h4.53c2.57,0,4.29.31,5.48,1.91a6.87,6.87,0,0,1,1.05,4A6.47,6.47,0,0,1,55.66,60.24Zm5.87,1.51H58.31V50.27h3.23Zm11.21,0-.68-2H66.73l-.71,2H62.84l4.51-11.47h4.3l4.54,11.47Zm5.69,1A1.61,1.61,0,1,1,80,61.05v0a1.59,1.59,0,0,1-1.57,1.61ZM209,72.19H88.33L106.56,3.8H227.2Z"/><path class="cls-1" d="M78.43,59.79a1.3,1.3,0,1,0,1.27,1.33v0a1.25,1.25,0,0,0-1.21-1.29Zm.29,2.14-.31-.66h-.18v.66h-.38v-1.7h.69a.54.54,0,0,1,.57.51v0a.49.49,0,0,1-.32.46l.36.71Z"/><polygon class="cls-1" points="67.42 57.74 71.39 57.74 69.44 52.37 67.42 57.74"/><path class="cls-1" d="M78.49,60.54h-.26V61h.26a.22.22,0,0,0,.27-.18.23.23,0,0,0-.17-.27h-.1Z"/><path class="cls-1" d="M143.56,61.74h-6.25L130,49.54h-5.46v12.2h-5.77V31.8h17.87a5,5,0,0,1,5,5v7.73a5,5,0,0,1-5,5h-.35Zm-19-17.51h9.7a1.47,1.47,0,0,0,1.48-1.46V38.65a1.52,1.52,0,0,0-1.48-1.54h-9.7Z"/><path class="cls-1" d="M167.74,31.8V37h-8.52V61.74h-5.81V37h-8.52V31.8Z"/><path class="cls-1" d="M189.94,31.8h6.41L187,46l9.91,15.74h-7l-6.46-10.21L176.9,61.74h-6.37l9.86-15.08-9.3-14.86h7L184,41.23Z"/><path class="cls-1" d="M200.3,31.8v.32h-.9v2.46H199V32.12h-.85V31.8Zm2.64,0h.37v2.78H203V32.41l-.81,1.39h-.3l-.76-1.32v2.1h-.37V31.8h.35l.93,1.62Z"/><path class="cls-1" d="M118.74,16.37a2.1,2.1,0,0,1,2.08-2.1h7.91v2.27h-6.9a.63.63,0,0,0-.64.62v5.89a.67.67,0,0,0,.18.44l.88.88a.66.66,0,0,0,.46.19h3.35a.62.62,0,0,0,.62-.62h0V21.67h-2.94V19.41h5.41v5.33a2.08,2.08,0,0,1-2.08,2.08H121.5a.63.63,0,0,1-.45-.18l-2.13-2.14a.62.62,0,0,1-.18-.44Z"/><path class="cls-1" d="M133.73,16.5v2.94h5.07v2.23h-5.07v2.92H140v2.23h-8.7V14.27H140V16.5Z"/><path class="cls-1" d="M144.3,26.82h-2.44V14.27h8.75V16.5H144.3v2.94h5.06v2.23H144.3Z"/><path class="cls-1" d="M152.34,16.37a2.08,2.08,0,0,1,2.06-2.1h6.26a2.09,2.09,0,0,1,2.07,2.1v8.37a2.07,2.07,0,0,1-2.06,2.08H154.4a2.07,2.07,0,0,1-2.06-2.08h0Zm7.35,8.22a.62.62,0,0,0,.63-.61h0V17.14a.64.64,0,0,0-.63-.64h-4.32a.63.63,0,0,0-.62.64h0V24a.62.62,0,0,0,.62.62Z"/><path class="cls-1" d="M175.19,26.82h-2.61l-3.08-5.11h-2.29v5.11H164.8V14.27h7.48a2.1,2.1,0,0,1,2.09,2.09h0v3.24a2.1,2.1,0,0,1-2.08,2.1h-.15Zm-8-7.34h4.07a.64.64,0,0,0,.62-.63V17.14a.63.63,0,0,0-.62-.64h-4.07Z"/><path class="cls-1" d="M184.81,16.5h-5.29a.64.64,0,0,0-.62.62V24a.62.62,0,0,0,.62.62h5.29v2.23h-6.24a2.08,2.08,0,0,1-2.08-2.08h0v-8.4a2.1,2.1,0,0,1,2.08-2.1h6.24Z"/><path class="cls-1" d="M189.24,16.5v2.94h5.07v2.23h-5.07v2.92h6.32v2.23h-8.75V14.27h8.75V16.5Z"/></g></g></g></svg>