<svg xmlns="http://www.w3.org/2000/svg" viewBox="0 0 321.39 71.59"><defs><style>.cls-1{fill:#fff;}</style></defs><g id="Layer_2" data-name="Layer 2"><g id="Layer_1-2" data-name="Layer 1"><path class="cls-1" d="M168.39,13.33c-.08-.95-.19-1.89-.35-2.82a18.34,18.34,0,0,0-.7-2.74,12.7,12.7,0,0,0-.53-1.33,9.94,9.94,0,0,0-.66-1.25A11,11,0,0,0,165.32,4a9.44,9.44,0,0,0-1-1A11,11,0,0,0,162,1.37a12.46,12.46,0,0,0-2.65-1A11.67,11.67,0,0,0,156.53,0a11.5,11.5,0,0,0-2.86.36,12.46,12.46,0,0,0-2.65,1A11.25,11.25,0,0,0,148.73,3a9.44,9.44,0,0,0-1,1,9.32,9.32,0,0,0-.83,1.15,11.52,11.52,0,0,0-.67,1.25c-.2.43-.37.88-.53,1.33a21.54,21.54,0,0,0-.69,2.74,26.48,26.48,0,0,0-.35,2.82,26.76,26.76,0,0,0-.09,2.83,19,19,0,0,0,.26,2.82,13.32,13.32,0,0,0,.32,1.39q.19.69.45,1.35a25.63,25.63,0,0,0,2.69,5c.53.79,1.07,1.56,1.62,2.34a27.08,27.08,0,0,0,1.76,2.24,9.56,9.56,0,0,0,2.15,1.85,7.29,7.29,0,0,0,1.28.64,5.91,5.91,0,0,0,.69.19,4.37,4.37,0,0,0,.72.06,4.17,4.17,0,0,0,.71-.06,5.91,5.91,0,0,0,.69-.19,6.66,6.66,0,0,0,1.28-.64,10.86,10.86,0,0,0,2.17-1.83A21.71,21.71,0,0,0,163.13,29c.56-.78,1.1-1.55,1.62-2.34a25.63,25.63,0,0,0,2.69-5c.17-.44.33-.89.46-1.35a13.86,13.86,0,0,0,.31-1.39,19,19,0,0,0,.27-2.82C168.5,15.22,168.46,14.28,168.39,13.33Zm-22.11,3.8s5.24,1.2,8.6,8.23C154.88,25.36,145.83,25.21,146.28,17.13Zm11.9,8.23c3.35-7,8.6-8.23,8.6-8.23C167.22,25.21,158.18,25.36,158.18,25.36Z"/><polygon class="cls-1" points="309.66 63.23 312.15 61.02 304.53 61.02 304.53 63.23 309.66 63.23"/><polygon class="cls-1" points="313.81 69.29 302.55 69.28 302.55 55.37 313.39 55.37 313.39 53.08 299.99 53.08 299.99 71.54 314.07 71.54 314.07 69.29 313.81 69.29"/><polygon class="cls-1" points="42.7 53.08 40.15 53.08 40.15 71.54 52.41 71.54 54.9 69.28 42.7 69.28 42.7 53.08"/><rect class="cls-1" x="75.87" y="53.08" width="2.56" height="18.46"/><polygon class="cls-1" points="150.21 67.95 137.99 53.12 137.95 53.08 135.38 53.08 135.38 71.54 137.82 71.54 137.82 56.61 150.04 71.5 150.08 71.54 152.63 71.54 152.63 53.08 150.21 53.08 150.21 67.95"/><polygon class="cls-1" points="194.32 68.22 188.81 53.15 188.78 53.08 186.45 53.08 180.91 68.2 176.58 53.16 176.56 53.08 173.88 53.08 179.23 71.46 179.26 71.54 182.1 71.54 187.6 56.7 193.08 71.54 195.92 71.54 201.31 53.22 201.35 53.08 198.68 53.08 194.32 68.22"/><path class="cls-1" d="M277,61.91a4,4,0,0,0,1.27-3.12v-.64a4.89,4.89,0,0,0-.46-2.13,4.37,4.37,0,0,0-1.29-1.6,5.7,5.7,0,0,0-2-1,9,9,0,0,0-2.58-.34h-9.5V71.54H265V55.37h6.78a4.46,4.46,0,0,1,3.2,1.06,2.63,2.63,0,0,1,.74,1.9v.6a2.24,2.24,0,0,1-.32,1.21,2.82,2.82,0,0,1-.84.88,3.82,3.82,0,0,1-1.2.54,6.49,6.49,0,0,1-1.39.21h-6V64h5.48l4.45,7.53v.06h2.83L274,63.46A6.48,6.48,0,0,0,277,61.91Z"/><path class="cls-1" d="M8.22,52.86.07,71.38,0,71.54H2.84l2.39-5.43L5.67,65h7.87l2.85,6.53h2.82L10.89,52.86ZM12.6,62.8H6.67l2.94-7Z"/><path class="cls-1" d="M230.49,52.86l-8.16,18.52-.07.16h2.85l2.39-5.43L228,65h7.87l2.84,6.46v.07h2.82l-8.34-18.68Zm4.37,9.94h-6l2.93-7Z"/><polygon class="cls-1" points="109.47 63.23 111.96 61.02 104.35 61.02 104.35 63.23 109.47 63.23"/><polygon class="cls-1" points="102.36 69.28 102.36 55.37 113.2 55.37 113.2 53.08 99.81 53.08 99.81 71.54 113.88 71.54 113.88 69.29 113.62 69.29 102.36 69.28"/><path class="cls-1" d="M315.74,53.43v-.35H318v.35H317v1.94h-.37V53.43Z"/><path class="cls-1" d="M319,53.08l1,1.36,1-1.36h.43v2.29H321V53.64l-.88,1.24h-.25L319,53.64v1.73h-.41V53.08Z"/></g></g></svg>